<svg id="Gears_icon" data-name="Gears icon" xmlns="http://www.w3.org/2000/svg" width="160.719" height="129.255" viewBox="0 0 160.719 129.255">
  <defs>
    <style>
      .cls-1 {
        fill: #487fbc;
      }

      .cls-1, .cls-2, .cls-3 {
        fill-rule: evenodd;
      }

      .cls-2 {
        fill: #daeaf2;
      }

      .cls-3 {
        fill: #00234a;
        opacity: 0.2;
      }
    </style>
  </defs>
  <path class="cls-1" d="M871.2,976.69a3.767,3.767,0,0,0,2.948-3.553v-8a3.768,3.768,0,0,0-2.948-3.553l-6.42-1.2a5.637,5.637,0,0,1-3.894-3.4l-1.858-4.536a5.636,5.636,0,0,1,.35-5.158l3.683-5.382a3.767,3.767,0,0,0-.427-4.6l-5.658-5.657a3.766,3.766,0,0,0-4.6-.427l-5.313,3.635a5.584,5.584,0,0,1-5.149.333l-4.645-1.935a5.66,5.66,0,0,1-3.4-3.9l-1.174-6.266a3.767,3.767,0,0,0-3.553-2.949h-8a3.767,3.767,0,0,0-3.553,2.949l-1.168,6.225a5.625,5.625,0,0,1-3.4,3.893l-4.719,1.945a5.608,5.608,0,0,1-5.153-.342l-5.239-3.584a3.766,3.766,0,0,0-4.6.428l-5.657,5.657a3.767,3.767,0,0,0-.427,4.6l3.591,5.249a5.615,5.615,0,0,1,.343,5.155l-1.934,4.7a5.635,5.635,0,0,1-3.894,3.4l-6.246,1.171a3.767,3.767,0,0,0-2.948,3.553v8a3.767,3.767,0,0,0,2.948,3.553l6.246,1.171a5.635,5.635,0,0,1,3.894,3.4l1.935,4.7a5.615,5.615,0,0,1-.343,5.155l-3.591,5.248a3.774,3.774,0,0,0,.427,4.6l5.658,5.65a3.763,3.763,0,0,0,4.6.43l5.238-3.58a5.6,5.6,0,0,1,5.153-.34l4.718,1.94a5.626,5.626,0,0,1,3.4,3.89l1.168,6.23a3.77,3.77,0,0,0,3.553,2.95h8a3.77,3.77,0,0,0,3.553-2.95l1.174-6.27a5.642,5.642,0,0,1,3.4-3.9l4.644-1.94a5.587,5.587,0,0,1,5.149.33l5.314,3.64a3.765,3.765,0,0,0,4.6-.43l5.658-5.65a3.772,3.772,0,0,0,.427-4.6l-3.683-5.383a5.634,5.634,0,0,1-.35-5.157l1.858-4.535a5.633,5.633,0,0,1,3.894-3.4Zm-46.135,5.419A12.972,12.972,0,1,1,838,969.137,12.956,12.956,0,0,1,825.064,982.109Zm99.895,32.481a6.29,6.29,0,0,1,3.12-4.27l4.737-2.27a3.762,3.762,0,0,0,1.929-4.19l-1.881-7.023a3.767,3.767,0,0,0-3.768-2.669l-5.852.449a6.078,6.078,0,0,1-4.7-1.935l-1-1a21.867,21.867,0,0,0-2.821-2.438,5.734,5.734,0,0,1-2.253-4.675l0.309-4.038a3.766,3.766,0,0,0-2.668-3.768l-7.02-1.881a3.768,3.768,0,0,0-4.2,1.929l-2.161,4.507a6.932,6.932,0,0,1-4.232,3.335l-3.944,1.27a6.12,6.12,0,0,1-5.236-.52L879.806,983a3.766,3.766,0,0,0-4.6.428l-5.138,5.138a3.767,3.767,0,0,0-.427,4.6l2.835,4.144a6.792,6.792,0,0,1,.736,5.314l-0.753,3.04a6.409,6.409,0,0,1-3.166,4.26l-4.163,1.99a3.78,3.78,0,0,0-1.928,4.2l1.88,7.02a3.779,3.779,0,0,0,3.768,2.67l4.49-.35a6.039,6.039,0,0,1,4.765,2.19,19.97,19.97,0,0,0,1.673,1.81,20.231,20.231,0,0,0,1.541,1.46,6.091,6.091,0,0,1,2.176,4.78l-0.338,4.42a3.755,3.755,0,0,0,2.668,3.76l7.02,1.88a3.759,3.759,0,0,0,4.194-1.93l1.854-3.86a6.333,6.333,0,0,1,4.265-3.15l4.173-1.07a6.659,6.659,0,0,1,5.3.68l5.107,3.5a3.763,3.763,0,0,0,4.6-.43l5.139-5.14a3.756,3.756,0,0,0,.427-4.59l-3.46-5.06a6.631,6.631,0,0,1-.684-5.3Zm-20.367,1.9a8.382,8.382,0,1,1-.013-11.84A8.369,8.369,0,0,1,904.592,1016.49Z" transform="translate(-774.125 -920.125)"/>
  <path id="Color_Fill_4" data-name="Color Fill 4" class="cls-2" d="M907.624,1019.52a12.67,12.67,0,1,1-.021-17.9A12.668,12.668,0,0,1,907.624,1019.52Zm-82.559-31.9a18.48,18.48,0,1,1,18.435-18.48A18.457,18.457,0,0,1,825.065,987.622Z" transform="translate(-774.125 -920.125)"/>
  <path class="cls-3" d="M790,934l70,70s-37,37-71,0S790,934,790,934Zm81,51,55,53s-25.96,24.96-52,1C849,1016,871,985,871,985Z" transform="translate(-774.125 -920.125)"/>
</svg>
