<svg id="Rocket_icon" data-name="Rocket icon" xmlns="http://www.w3.org/2000/svg" width="116.5" height="145.276" viewBox="0 0 116.5 145.276">
  <defs>
    <style>
      .cls-1 {
        fill: #3a6da5;
      }

      .cls-1, .cls-10, .cls-2, .cls-3, .cls-4, .cls-5, .cls-6, .cls-7, .cls-8, .cls-9 {
        fill-rule: evenodd;
      }

      .cls-2 {
        fill: #487fbc;
      }

      .cls-3 {
        fill: #d97475;
      }

      .cls-4 {
        fill: #f1c40f;
      }

      .cls-5 {
        fill: #daeaf2;
      }

      .cls-6 {
        fill: #bedae8;
      }

      .cls-7 {
        fill: #d84848;
      }

      .cls-8 {
        fill: #f57b71;
      }

      .cls-9 {
        fill: #fff;
      }

      .cls-10 {
        fill: #5ad2eb;
      }
    </style>
  </defs>
  <path class="cls-1" d="M1138.1,1024a4.879,4.879,0,0,1,1.69,3.57c0.09,2.36-.55,17.58-0.55,17.58s14.43-17,18.6-22.28a13.13,13.13,0,0,0-2.13-17.86C1149.53,999.708,1138.1,1024,1138.1,1024Z" transform="translate(-1090.06 -903.844)"/>
  <path id="Color_Fill_5" data-name="Color Fill 5" class="cls-2" d="M1108.96,1007.17a4.91,4.91,0,0,0-3.94.32c-2.08,1.11-14.94,9.28-14.94,9.28s7.5-21,9.99-27.258a13.126,13.126,0,0,1,16.53-7.083C1124.28,985.13,1108.96,1007.17,1108.96,1007.17Z" transform="translate(-1090.06 -903.844)"/>
  <path class="cls-3" d="M1116.08,1012.15l13.86,8a3.5,3.5,0,1,1-3.5,6.06l-13.86-8A3.5,3.5,0,0,1,1116.08,1012.15Z" transform="translate(-1090.06 -903.844)"/>
  <path class="cls-4" d="M1119.81,1024.69a8,8,0,0,1,2.92,10.93c-2.2,3.83-17.07,13.52-17.07,13.52s1.01-17.69,3.22-21.52A8,8,0,0,1,1119.81,1024.69Z" transform="translate(-1090.06 -903.844)"/>
  <path class="cls-5" d="M1181.5,920.566a15.422,15.422,0,0,1-.92-3.6c0.1-.167.14-0.3,0.08-0.289a0.815,0.815,0,0,1-.55-0.186c-0.05-.145-0.18-0.121-0.28.053a14.887,14.887,0,0,1-3.57,1.084s-35.11,7.963-50.81,36.715c-17.47,31.987-16.15,53.777-16.15,53.777a6.491,6.491,0,0,0,2.94,5.21l5.78,3.33c1.65,0.96,3.17,1.84,3.38,1.96s1.72,0.99,3.38,1.95l6.14,3.54a6.662,6.662,0,0,0,6.01.01s18.56-10.36,37.53-41.48C1191.54,954.613,1181.5,920.566,1181.5,920.566Z" transform="translate(-1090.06 -903.844)"/>
  <path class="cls-6" d="M1181.44,915.939l25.12,14.5-61,105.65-25.12-14.5Z" transform="translate(-1090.06 -903.844)"/>
  <path id="Shape_29_copy" data-name="Shape 29 copy" class="cls-7" d="M1182.95,913.322l15.6,8.981-13,22.517a107.937,107.937,0,0,0-14.61-10.685Z" transform="translate(-1090.06 -903.844)"/>
  <path class="cls-8" d="M1170.94,934.135c-0.24-.138-0.47-0.279-0.7-0.413a98.512,98.512,0,0,0-16.73-7.4l12.98-22.478,16.46,9.48Z" transform="translate(-1090.06 -903.844)"/>
  <path id="Shape_28_copy" data-name="Shape 28 copy" class="cls-9" d="M1160.99,950.361a16.466,16.466,0,1,1-22.49,6.026A16.477,16.477,0,0,1,1160.99,950.361Z" transform="translate(-1090.06 -903.844)"/>
  <path class="cls-10" d="M1159.01,953.8a12.5,12.5,0,1,1-17.08,4.575A12.5,12.5,0,0,1,1159.01,953.8Z" transform="translate(-1090.06 -903.844)"/>
</svg>
